# xmcd CD database file
#
# Track frame offsets:
#	150
#	24380
#	46622
#	66495
#	88715
#	116717
#	145310
#	167290
#	192372
#	218832
#
# Disc length: 3266 seconds
#
# Revision: 0
# Processed by: cddbd v1.5.1PL2 Copyright (c) Steve Scherf et al.
# Submitted via: CDex 1.51
#
DISCID=870cc00a
DTITLE=Inst. - Crystalsounds／Collection of RYO ASKA
DYEAR=1992
DGENRE=Instrumental
TTITLE0=SAY YES
TTITLE1=はじまりはいつも雨
TTITLE2=MOON LIGHT BLUES
TTITLE3=男と女
TTITLE4=僕はこの瞳で嘘をつく
TTITLE5=WALK
TTITLE6=モーニング ムーン
TTITLE7=恋人はワイン色
TTITLE8=太陽と埃の中で
TTITLE9=LOVE SONG
EXTD=YEAR: 1992
EXTT0=
EXTT1=
EXTT2=
EXTT3=
EXTT4=
EXTT5=
EXTT6=
EXTT7=
EXTT8=
EXTT9=
PLAYORDER=
